<svg width="49" height="48" viewBox="0 0 49 48" fill="none" xmlns="http://www.w3.org/2000/svg">
<path fill-rule="evenodd" clip-rule="evenodd" d="M17.5 21V17H21.5V21H17.5ZM15.5 16C15.5 15.4477 15.9477 15 16.5 15H22.5C23.0523 15 23.5 15.4477 23.5 16V22C23.5 22.5523 23.0523 23 22.5 23H16.5C15.9477 23 15.5 22.5523 15.5 22V16ZM27.5 21V17H31.5V21H27.5ZM25.5 16C25.5 15.4477 25.9477 15 26.5 15H32.5C33.0523 15 33.5 15.4477 33.5 16V22C33.5 22.5523 33.0523 23 32.5 23H26.5C25.9477 23 25.5 22.5523 25.5 22V16ZM17.5 27V31H21.5V27H17.5ZM16.5 25C15.9477 25 15.5 25.4477 15.5 26V32C15.5 32.5523 15.9477 33 16.5 33H22.5C23.0523 33 23.5 32.5523 23.5 32V26C23.5 25.4477 23.0523 25 22.5 25H16.5ZM27.5 31V27H31.5V31H27.5ZM25.5 26C25.5 25.4477 25.9477 25 26.5 25H32.5C33.0523 25 33.5 25.4477 33.5 26V32C33.5 32.5523 33.0523 33 32.5 33H26.5C25.9477 33 25.5 32.5523 25.5 32V26Z" fill="#A6A6A6"/>
<path fill-rule="evenodd" clip-rule="evenodd" d="M17.5 21V17H21.5V21H17.5ZM15.5 16C15.5 15.4477 15.9477 15 16.5 15H22.5C23.0523 15 23.5 15.4477 23.5 16V22C23.5 22.5523 23.0523 23 22.5 23H16.5C15.9477 23 15.5 22.5523 15.5 22V16ZM27.5 21V17H31.5V21H27.5ZM25.5 16C25.5 15.4477 25.9477 15 26.5 15H32.5C33.0523 15 33.5 15.4477 33.5 16V22C33.5 22.5523 33.0523 23 32.5 23H26.5C25.9477 23 25.5 22.5523 25.5 22V16ZM17.5 27V31H21.5V27H17.5ZM16.5 25C15.9477 25 15.5 25.4477 15.5 26V32C15.5 32.5523 15.9477 33 16.5 33H22.5C23.0523 33 23.5 32.5523 23.5 32V26C23.5 25.4477 23.0523 25 22.5 25H16.5ZM27.5 31V27H31.5V31H27.5ZM25.5 26C25.5 25.4477 25.9477 25 26.5 25H32.5C33.0523 25 33.5 25.4477 33.5 26V32C33.5 32.5523 33.0523 33 32.5 33H26.5C25.9477 33 25.5 32.5523 25.5 32V26Z" fill="black" fill-opacity="0.2"/>
</svg>
