<svg width="8" height="14" viewBox="0 0 8 14" fill="none" xmlns="http://www.w3.org/2000/svg">
<path fill-rule="evenodd" clip-rule="evenodd" d="M3 2C3 2.82843 2.32843 3.5 1.5 3.5C0.671573 3.5 0 2.82843 0 2C0 1.17157 0.671573 0.5 1.5 0.5C2.32843 0.5 3 1.17157 3 2ZM3 7C3 7.82843 2.32843 8.5 1.5 8.5C0.671573 8.5 0 7.82843 0 7C0 6.17157 0.671573 5.5 1.5 5.5C2.32843 5.5 3 6.17157 3 7ZM1.5 13.5C2.32843 13.5 3 12.8284 3 12C3 11.1716 2.32843 10.5 1.5 10.5C0.671573 10.5 0 11.1716 0 12C0 12.8284 0.671573 13.5 1.5 13.5Z" fill="#37383D"/>
<path fill-rule="evenodd" clip-rule="evenodd" d="M8 2C8 2.82843 7.32843 3.5 6.5 3.5C5.67157 3.5 5 2.82843 5 2C5 1.17157 5.67157 0.5 6.5 0.5C7.32843 0.5 8 1.17157 8 2ZM8 7C8 7.82843 7.32843 8.5 6.5 8.5C5.67157 8.5 5 7.82843 5 7C5 6.17157 5.67157 5.5 6.5 5.5C7.32843 5.5 8 6.17157 8 7ZM6.5 13.5C7.32843 13.5 8 12.8284 8 12C8 11.1716 7.32843 10.5 6.5 10.5C5.67157 10.5 5 11.1716 5 12C5 12.8284 5.67157 13.5 6.5 13.5Z" fill="#37383D"/>
</svg>
